<svg xmlns="http://www.w3.org/2000/svg">
    <defs>
        <!-- Menu icon -->
        <symbol
            id="sidenav-collapser"
            viewBox="0 0 20 20"
        >
            <path
                fill="currentColor"
                d="M2 4.75A.75.75 0 012.75 4h14.5a.75.75 0 010 1.5H2.75A.75.75 0 012 4.75zm0 10.5a.75.75 0 01.75-.75h7.5a.75.75 0 010 1.5h-7.5a.75.75 0 01-.75-.75zM2 10a.75.75 0 01.75-.75h14.5a.75.75 0 010 1.5H2.75A.75.75 0 012 10z"
            ></path>
        </symbol>

        <!-- Back icon -->
        <symbol
            id="back"
            viewBox="0 0 24 24"
        >
            <path
                fill="none"
                stroke="currentColor"
                stroke-width="1.5"
                stroke-linecap="round"
                stroke-linejoin="round"
                d="M9 15L3 9m0 0l6-6M3 9h12a6 6 0 0 1 0 12h-3"
            ></path>
        </symbol>
    </defs>
</svg>
